# xmcd
#
# Track frame offsets:
#	150
#	15112
#	36560
#	59172
#	76602
#	94620
#
# Disc length: 1464 seconds
#
# Revision: 1
# Processed by: cddbd v1.5.1PL0 Copyright (c) Steve Scherf et al.
# Submitted via: CDex 1.50Beta5
#
DISCID=3d05b606
DTITLE=東京ピンサロックス - STAY HERE
DYEAR=1900
DGENRE=Rock
TTITLE0=SOUND WAVE
TTITLE1=STAY HERE
TTITLE2=月の願い
TTITLE3=自分放棄
TTITLE4=花
TTITLE5=掌上遊戯
EXTD=
EXTT0=
EXTT1=
EXTT2=
EXTT3=
EXTT4=
EXTT5=
PLAYORDER=
